<svg width="25" height="24" viewBox="0 0 25 24" fill="none" xmlns="http://www.w3.org/2000/svg">
<path d="M24.5 12C24.5 5.37258 19.1274 0 12.5 0C5.87258 0 0.5 5.37258 0.5 12C0.5 18.6274 5.87258 24 12.5 24C19.1274 24 24.5 18.6274 24.5 12Z" fill="url(#paint0_linear_231_1044)" fill-opacity="0.08"/>
<path d="M12.5 9L15.5 12L12.5 15L9.5 12L12.5 9Z" fill="#F3EEFF"/>
<path d="M24 12C24 5.64873 18.8513 0.5 12.5 0.5C6.14873 0.5 1 5.64873 1 12C1 18.3513 6.14873 23.5 12.5 23.5C18.8513 23.5 24 18.3513 24 12Z" stroke="#F3EEFF" stroke-opacity="0.06"/>
<defs>
<linearGradient id="paint0_linear_231_1044" x1="12.5" y1="0" x2="12.5" y2="24" gradientUnits="userSpaceOnUse">
<stop stop-color="#F3EEFF" stop-opacity="0"/>
<stop offset="1" stop-color="#F3EEFF"/>
</linearGradient>
</defs>
</svg>
