<svg width="7" height="13" viewBox="0 0 7 13" fill="none" xmlns="http://www.w3.org/2000/svg">
<path d="M2.297 8.99915V8.54919C2.27648 7.99889 2.3843 7.45109 2.61274 6.94504C2.90524 6.43069 3.30505 5.97844 3.78773 5.61593C4.35507 5.20212 4.86086 4.71723 5.29133 4.17448C5.5074 3.82093 5.6152 3.41702 5.60258 3.00834C5.63323 2.51023 5.42151 2.02633 5.02826 1.69573C4.5529 1.35944 3.9669 1.19535 3.37562 1.23297C2.92059 1.23225 2.46715 1.28401 2.02525 1.38713C1.50224 1.52118 0.996464 1.70986 0.517161 1.94972L0 0.824827C1.06577 0.284083 2.25516 0.000816839 3.46331 0C4.58063 0 5.44855 0.2611 6.06707 0.783301C6.70655 1.3516 7.04659 2.16097 6.99485 2.99156C7.0018 3.35512 6.94402 3.71717 6.82396 4.06242C6.70598 4.37766 6.53584 4.67299 6.31996 4.9373C5.88051 5.41724 5.40001 5.86179 4.8834 6.26641C4.42898 6.60194 4.03393 7.00435 3.71321 7.45843C3.50517 7.85028 3.40703 8.28652 3.42829 8.72496V9L2.297 8.99915Z" fill="white"/>
<circle cx="3" cy="12" r="1" fill="white"/>
</svg>
